<svg xmlns="http://www.w3.org/2000/svg" width="525" height="285" viewBox="0 0 525 285"><g fill="none" fill-rule="evenodd"><rect width="525" height="285" fill="#FFF" opacity="0"/><path fill="#000" fill-rule="nonzero" d="M180,80 C193.807119,80 205,91.1928813 205,105 C205,118.669048 194.029857,129.775881 180.413421,129.996651 L180,130 L105,130 C77.3857625,130 55,152.385763 55,180 C55,207.338095 76.9402858,229.551762 104.173159,229.993301 L105,230 L180,230 C193.807119,230 205,241.192881 205,255 C205,268.669048 194.029857,279.775881 180.413421,279.996651 L180,280 L105,280 C49.771525,280 5,235.228475 5,180 C5,125.32381 48.8805717,80.8964762 103.346317,80.0133971 L105,80 L180,80 Z M495,80 C508.669048,80 519.775881,90.9701429 519.996651,104.586579 L520,105 L520,255 C520,268.807119 508.807119,280 495,280 C481.330952,280 470.224119,269.029857 470.003349,255.413421 L470,255 L470,105 C470,91.1928813 481.192881,80 495,80 Z M415,5 C428.669048,5 439.775881,15.9701429 439.996651,29.5865793 L440,30 L440,180 C440,193.807119 428.807119,205 415,205 C401.330952,205 390.224119,194.029857 390.003349,180.413421 L390,180 L390,30 C390,16.1928813 401.192881,5 415,5 Z M335,155 C348.807119,155 360,166.192881 360,180 C360,193.669048 349.029857,204.775881 335.413421,204.996651 L335,205 L260,205 C246.192881,205 235,193.807119 235,180 C235,166.330952 245.970143,155.224119 259.586579,155.003349 L260,155 L335,155 Z M180,155 C193.807119,155 205,166.192881 205,180 C205,193.669048 194.029857,204.775881 180.413421,204.996651 L180,205 L155,205 C141.192881,205 130,193.807119 130,180 C130,166.330952 140.970143,155.224119 154.586579,155.003349 L155,155 L180,155 Z M335,80 C348.807119,80 360,91.1928813 360,105 C360,118.669048 349.029857,129.775881 335.413421,129.996651 L335,130 L260,130 C246.192881,130 235,118.807119 235,105 C235,91.3309524 245.970143,80.224119 259.586579,80.0033493 L260,80 L335,80 Z M180,5 C193.807119,5 205,16.1928813 205,30 C205,43.6690476 194.029857,54.775881 180.413421,54.9966507 L180,55 L30,55 C16.1928813,55 5,43.8071187 5,30 C5,16.3309524 15.9701429,5.22411905 29.5865793,5.00334929 L30,5 L180,5 Z"/></g></svg>