<svg xmlns="http://www.w3.org/2000/svg" width="240" height="240" viewBox="0 0 240 240"><g fill="none" fill-rule="evenodd"><rect width="240" height="240" fill="#FFF" opacity="0"/><g fill-rule="nonzero"><rect width="24" height="24" fill="#FFF" opacity="0"/><path fill="#000" d="M22.0677966,12.8305085 L1.93220339,12.8305085 C1.41736167,12.8305085 1,12.4131468 1,11.8983051 C1,11.3834634 1.41736167,10.9661017 1.93220339,10.9661017 L22.0677966,10.9661017 C22.5826383,10.9661017 23,11.3834634 23,11.8983051 C23,12.4131468 22.5826383,12.8305085 22.0677966,12.8305085 Z M22.0677966,18.7966102 L1.93220339,18.7966102 C1.41736167,18.7966102 1,18.3792485 1,17.8644068 C1,17.3495651 1.41736167,16.9322034 1.93220339,16.9322034 L22.0677966,16.9322034 C22.5826383,16.9322034 23,17.3495651 23,17.8644068 C23,18.3792485 22.5826383,18.7966102 22.0677966,18.7966102 Z M22.0677966,6.86440678 L1.93220339,6.86440678 C1.41736167,6.86440678 1,6.44704511 1,5.93220339 C1,5.41736167 1.41736167,5 1.93220339,5 L22.0677966,5 C22.5826383,5 23,5.41736167 23,5.93220339 C23,6.44704511 22.5826383,6.86440678 22.0677966,6.86440678 Z"/></g><g fill-rule="nonzero" transform="translate(24)"><rect width="24" height="24" fill="#FFF" opacity="0"/><path fill="#000" d="M9.76270966,18.5254193 C4.92319875,18.5254193 1,14.6022206 1,9.76270966 C1,4.92319875 4.92319875,1 9.76270966,1 C14.6022206,1 18.5254193,4.92319875 18.5254193,9.76270966 C18.5213073,14.6005163 14.6005163,18.5213073 9.76270966,18.5254193 Z M9.76270966,2.86440631 C5.95288192,2.86440631 2.86440631,5.95288192 2.86440631,9.76270966 C2.86440631,13.5725374 5.95288192,16.661013 9.76270966,16.661013 C13.5725374,16.661013 16.661013,13.5725374 16.661013,9.76270966 C16.6569028,5.95458573 13.5708336,2.86851654 9.76270966,2.86440631 Z"/><path fill="#000" d="M22.0677913,23.0000055 C21.8203056,23.0008486 21.5827207,22.9028616 21.4077915,22.7277911 L14.6399966,15.9599962 C14.2754887,15.5954884 14.2754887,15.0045044 14.6399966,14.6399966 C15.0045044,14.2754887 15.5954884,14.2754887 15.9599962,14.6399966 L22.7277911,21.4077915 C23.0888699,21.773713 23.0888699,22.3618696 22.7277911,22.7277911 C22.5528619,22.9028616 22.315277,23.0008486 22.0677913,23.0000055 L22.0677913,23.0000055 Z"/></g><g fill-rule="nonzero" transform="translate(48)"><rect width="24" height="24" fill="#FFF" opacity="0"/><path fill="#000" d="M1.92372206,12.9426807 C1.55069639,12.9389527 1.21574474,12.7133891 1.07203559,12.3691366 C0.928326446,12.0248842 1.00348507,11.6281189 1.26314253,11.3602755 L11.3397794,1.28363868 C11.5107496,1.10770834 11.743912,1.0058673 11.9891626,1 L11.9891626,1 C12.2367037,1 12.4741951,1.09791498 12.6497422,1.27244241 L22.726379,11.3490793 C23.091207,11.7139073 23.091207,12.3054103 22.726379,12.6702383 C22.361551,13.0350663 21.7700479,13.0350663 21.4052199,12.6702383 L11.9891626,3.23925264 L2.58430158,12.6777025 C2.40777101,12.8498438 2.17027787,12.9451094 1.92372206,12.9426807 Z"/><path fill="#000" d="M16.4975246,22.5938596 L7.5031932,22.5938596 C5.34685265,22.585637 3.60316153,20.8352558 3.60316153,18.6788995 L3.60316153,9.42332199 C3.60316153,8.90802821 4.02088968,8.49030006 4.53618346,8.49030006 C5.05147724,8.49030006 5.46920539,8.90802821 5.46920539,9.42332199 L5.46920539,18.6788995 C5.46920539,19.8104847 6.3865364,20.7278157 7.51812155,20.7278157 L16.5124529,20.7278157 C17.6323612,20.7114947 18.5316313,19.7989267 18.5315124,18.6788995 L18.5315124,9.42332199 C18.5315124,8.90802821 18.9492406,8.49030006 19.4645343,8.49030006 C19.9798281,8.49030006 20.3975563,8.90802821 20.3975563,9.42332199 L20.3975563,18.6788995 C20.3975563,20.8352558 18.6538651,22.585637 16.4975246,22.5938596 Z"/></g><g fill-rule="nonzero" transform="translate(0 24)"><rect width="24" height="24" fill="#FFF" opacity="0"/><path fill="#000" d="M11.9865891,23 C6.73993521,22.9933175 2.22834201,19.2819971 1.21018194,14.1350785 C0.192021864,8.98815989 2.95076667,3.838626 7.79972934,1.834884 C12.648692,-0.168858008 18.2378452,1.5310651 21.1500001,5.89532622 C24.0621549,10.2595873 23.4865218,16.0731077 19.7750408,19.781521 C17.710503,21.8478477 14.9075451,23.006117 11.9865891,23 L11.9865891,23 Z M11.9865891,2.83806637 C7.6263173,2.84166283 3.87570561,5.92466585 3.02830455,10.2018021 C2.18090349,14.4789383 4.47270249,18.7590847 8.50223501,20.424873 C12.5317675,22.0906612 17.1768647,20.6781925 19.5969858,17.0512107 C22.017107,13.424229 21.538282,8.59279834 18.4533189,5.51140491 C16.7388627,3.79602509 14.4118461,2.83404826 11.9865891,2.83806637 Z"/><path fill="#000" d="M7.50617587,17.3994347 C7.1983555,17.3978302 6.91095086,17.2451609 6.73728764,16.9910014 C6.56362442,16.7368419 6.52584945,16.4136046 6.63622897,16.1262506 L9.14526038,9.69312392 C9.24059507,9.45122264 9.43287363,9.26029815 9.67544261,9.16667537 L16.1272377,6.63524189 C16.4726987,6.49980974 16.8655727,6.58186099 17.1279514,6.84423972 C17.3903301,7.10661845 17.4723814,7.49949243 17.3369492,7.84495347 L14.8055158,14.2930148 C14.7101811,14.5349161 14.5179025,14.7258406 14.2753335,14.8194634 L7.84594054,17.3284948 C7.73833441,17.3738766 7.62295102,17.3979676 7.50617587,17.3994347 Z M10.7358071,10.7534884 L9.14899405,14.8157297 L13.2149691,13.2289167 L14.8167168,9.14800698 L10.7358071,10.7534884 Z"/></g><g fill-rule="nonzero" transform="translate(0 48)"><rect width="24" height="24" fill="#FFF" opacity="0"/><path fill="#000" d="M21.1500001,5.89532622 C24.0621549,10.2595873 23.4865218,16.0731077 19.7750408,19.781521 C17.710503,21.8478477 14.9075451,23.006117 11.9865891,23 C6.73993521,22.9933175 2.22834201,19.2819971 1.21018194,14.1350785 C0.192021864,8.98815989 2.95076667,3.838626 7.79972934,1.834884 C12.648692,-0.168858008 18.2378452,1.5310651 21.1500001,5.89532622 Z M17.1279514,6.84423972 C16.8655727,6.58186099 16.4726987,6.49980974 16.1272377,6.63524189 L16.1272377,6.63524189 L9.67544261,9.16667537 C9.43287363,9.26029815 9.24059507,9.45122264 9.14526038,9.69312392 L9.14526038,9.69312392 L6.63622897,16.1262506 C6.52584945,16.4136046 6.56362442,16.7368419 6.73728764,16.9910014 C6.91095086,17.2451609 7.1983555,17.3978302 7.50617587,17.3994347 C7.62295102,17.3979676 7.73833441,17.3738766 7.84594054,17.3284948 L7.84594054,17.3284948 L14.2753335,14.8194634 C14.5179025,14.7258406 14.7101811,14.5349161 14.8055158,14.2930148 L14.8055158,14.2930148 L17.3369492,7.84495347 C17.4723814,7.49949243 17.3903301,7.10661845 17.1279514,6.84423972 Z"/></g><g fill-rule="nonzero" transform="translate(24 24)"><rect width="24" height="24" fill="#FFF" opacity="0"/><path fill="#000" d="M9.76271186,7.71186441 L1.93220339,7.71186441 C1.41736167,7.71186441 1,7.29450273 1,6.77966102 L1,1.93220339 C1,1.41736167 1.41736167,1 1.93220339,1 L9.76271186,1 C10.2775536,1 10.6949153,1.41736167 10.6949153,1.93220339 L10.6949153,6.77966102 C10.6949153,7.29450273 10.2775536,7.71186441 9.76271186,7.71186441 Z M2.86440678,5.84745763 L8.83050847,5.84745763 L8.83050847,2.86440678 L2.86440678,2.86440678 L2.86440678,5.84745763 Z M22.0677966,14.0508475 L14.2372881,14.0508475 C13.7224464,14.0508475 13.3050847,13.6334858 13.3050847,13.1186441 L13.3050847,1.93220339 C13.3050847,1.41736167 13.7224464,1 14.2372881,1 L22.0677966,1 C22.5826383,1 23,1.41736167 23,1.93220339 L23,13.1186441 C23,13.6334858 22.5826383,14.0508475 22.0677966,14.0508475 Z M15.1694915,12.1864407 L21.1355932,12.1864407 L21.1355932,2.86440678 L15.1694915,2.86440678 L15.1694915,12.1864407 Z M9.76271186,23 L1.93220339,23 C1.41736167,23 1,22.5826383 1,22.0677966 L1,10.8813559 C1,10.3665142 1.41736167,9.94915254 1.93220339,9.94915254 L9.76271186,9.94915254 C10.2775536,9.94915254 10.6949153,10.3665142 10.6949153,10.8813559 L10.6949153,22.0677966 C10.6949153,22.5826383 10.2775536,23 9.76271186,23 Z M2.86440678,21.1355932 L8.83050847,21.1355932 L8.83050847,11.8135593 L2.86440678,11.8135593 L2.86440678,21.1355932 Z M22.0677966,23 L14.2372881,23 C13.7224464,23 13.3050847,22.5826383 13.3050847,22.0677966 L13.3050847,17.220339 C13.3050847,16.7054973 13.7224464,16.2881356 14.2372881,16.2881356 L22.0677966,16.2881356 C22.5826383,16.2881356 23,16.7054973 23,17.220339 L23,22.0677966 C23,22.5826383 22.5826383,23 22.0677966,23 Z M15.1694915,21.1355932 L21.1355932,21.1355932 L21.1355932,18.1525424 L15.1694915,18.1525424 L15.1694915,21.1355932 Z"/></g><g fill-rule="nonzero" transform="translate(24 48)"><rect width="24" height="24" fill="#FFF" opacity="0"/><path fill="#000" d="M9.76271186,7.71186441 L1.93220339,7.71186441 C1.41736167,7.71186441 1,7.29450273 1,6.77966102 L1,1.93220339 C1,1.41736167 1.41736167,1 1.93220339,1 L9.76271186,1 C10.2775536,1 10.6949153,1.41736167 10.6949153,1.93220339 L10.6949153,6.77966102 C10.6949153,7.29450273 10.2775536,7.71186441 9.76271186,7.71186441 Z M22.0677966,14.0508475 L14.2372881,14.0508475 C13.7224464,14.0508475 13.3050847,13.6334858 13.3050847,13.1186441 L13.3050847,1.93220339 C13.3050847,1.41736167 13.7224464,1 14.2372881,1 L22.0677966,1 C22.5826383,1 23,1.41736167 23,1.93220339 L23,13.1186441 C23,13.6334858 22.5826383,14.0508475 22.0677966,14.0508475 Z M9.76271186,23 L1.93220339,23 C1.41736167,23 1,22.5826383 1,22.0677966 L1,10.8813559 C1,10.3665142 1.41736167,9.94915254 1.93220339,9.94915254 L9.76271186,9.94915254 C10.2775536,9.94915254 10.6949153,10.3665142 10.6949153,10.8813559 L10.6949153,22.0677966 C10.6949153,22.5826383 10.2775536,23 9.76271186,23 Z M22.0677966,23 L14.2372881,23 C13.7224464,23 13.3050847,22.5826383 13.3050847,22.0677966 L13.3050847,17.220339 C13.3050847,16.7054973 13.7224464,16.2881356 14.2372881,16.2881356 L22.0677966,16.2881356 C22.5826383,16.2881356 23,16.7054973 23,17.220339 L23,22.0677966 C23,22.5826383 22.5826383,23 22.0677966,23 Z"/></g><g fill-rule="nonzero" transform="translate(48 24)"><rect width="24" height="24" fill="#FFF" opacity="0"/><path fill="#000" d="M21.7583051,22.299661 C21.6621036,22.2993988 21.5665175,22.2843063 21.4749153,22.2549153 L16.4857627,20.6440678 C16.1662733,20.5440985 15.924919,20.2804941 15.8534381,19.9534499 C15.7819573,19.6264058 15.8913268,19.2861449 16.1399757,19.0619997 C16.3886246,18.8378544 16.7383688,18.7642459 17.0562712,18.8691525 L20.3376271,19.9244068 L19.4725424,17.1352542 C19.3191196,16.6430656 19.5937435,16.119694 20.0859322,15.9662712 C20.5781209,15.8128484 21.1014924,16.0874723 21.2549153,16.579661 L22.6494915,21.0915254 C22.7548669,21.4228123 22.6639088,21.785201 22.4145763,22.0274576 C22.2403287,22.2012665 22.0044177,22.2991159 21.7583051,22.299661 Z"/><path fill="#000" d="M12,21.7627532 C5.93322034,21.7627532 1,17.3291525 1,11.8813559 C1,6.43355932 5.93322034,2 12,2 C18.0667797,2 23,6.43355932 23,11.8813559 C22.993675,13.887313 22.3280979,15.8355671 21.1057627,17.4261017 C20.7968577,17.837975 20.2125514,17.9214474 19.800678,17.6125423 C19.3888046,17.3036373 19.3053323,16.719331 19.6142373,16.3074576 C20.5935627,15.0391438 21.1281909,13.4837427 21.1355932,11.8813559 C21.1355932,7.45898305 17.0338983,3.86440678 12,3.86440678 C6.96610169,3.86440678 2.86440678,7.45898305 2.86440678,11.8813559 C2.86440678,16.3037288 6.96610169,19.8983051 12,19.8983051 C13.5097067,19.902307 15.0013339,19.5698435 16.3664407,18.9250847 C16.6668465,18.7812097 17.0211895,18.8085282 17.2959919,18.9967498 C17.5707943,19.1849713 17.7243072,19.5055006 17.6987037,19.8375972 C17.6731003,20.1696939 17.4722703,20.4629046 17.1718644,20.6067797 C15.5550709,21.3711724 13.788381,21.7660346 12,21.7627532 L12,21.7627532 Z"/></g><g fill-rule="nonzero" transform="translate(48 48)"><rect width="24" height="24" fill="#FFF" opacity="0"/><path fill="#000" d="M12,2 C18.0667797,2 23,6.43355932 23,11.8813559 C22.9941928,13.7230897 22.432658,15.5161818 21.3947214,17.0284329 L22.6494915,21.0915254 C22.7548669,21.4228123 22.6639088,21.785201 22.4145763,22.0274576 C22.2403287,22.2012665 22.0044177,22.2991159 21.7583051,22.299661 C21.6621036,22.2993988 21.5665175,22.2843063 21.4749153,22.2549153 L16.837,20.758 L16.7961557,20.7766052 C15.2831441,21.4295644 13.6508132,21.7657806 12,21.7627327 C5.93322034,21.7627327 1,17.3291525 1,11.8813559 C1,6.43355932 5.93322034,2 12,2 Z"/></g><g fill-rule="nonzero" transform="translate(72 24)"><rect width="24" height="24" fill="#FFF" opacity="0"/><path fill="#000" d="M16.6537327,21.6657538 L7.34487153,21.6657538 C5.51282576,21.6616123 3.90576891,20.4427949 3.40770664,18.6797456 L1.09608408,10.4584775 C0.879463151,9.69559253 1.03368651,8.87526159 1.51257196,8.24313279 C1.99145741,7.61100399 2.73940748,7.24046602 3.5324485,7.24246026 L20.4661557,7.24246026 C21.2587026,7.24246026 22.0055962,7.61331096 22.4846678,8.24467532 C22.9637394,8.87603969 23.1197963,9.69519484 22.9064183,10.4584775 L20.5947958,18.6797456 C20.0940504,20.4426207 18.4863399,21.6607277 16.6537327,21.6657538 L16.6537327,21.6657538 Z M3.5324485,9.1915533 C3.35017007,9.19064571 3.17817716,9.2759195 3.06856471,9.4215608 C2.95508226,9.56585662 2.91874264,9.75627621 2.97111013,9.93222278 L5.28663087,18.1495927 C5.54923388,19.0711527 6.39052619,19.7072905 7.34876972,19.7088659 L16.6537327,19.7088659 C17.6129821,19.7077188 18.4556291,19.0717588 18.7197697,18.1495927 L21.0313923,9.93222278 C21.0801712,9.75592855 21.0436405,9.56696548 20.932669,9.42155449 C20.8216974,9.27614349 20.6490731,9.19104138 20.4661557,9.1915533 L3.5324485,9.1915533 Z"/><path fill="#000" d="M5.81288559,9.191568 C5.42000915,9.18851902 5.06705905,8.95076624 4.91661232,8.58782413 C4.7661656,8.22488202 4.84740398,7.80714948 5.12290719,7.52704383 L9.36413036,3.28582065 C9.6106359,3.0393151 9.96992556,2.94304372 10.3066584,3.03327101 C10.6433912,3.1234983 10.9064095,3.38651659 10.9966368,3.72324942 C11.0868641,4.05998226 10.9905927,4.41927192 10.7440872,4.66577746 L6.50286399,8.90310245 C6.32038529,9.08718946 6.07208856,9.19099713 5.81288559,9.191568 Z M18.1896168,9.191568 C17.9304139,9.19099713 17.6821171,9.08718946 17.4996384,8.90310245 L13.2623134,4.66577746 C12.8812489,4.28471291 12.8812489,3.66688521 13.2623134,3.28582067 C13.643378,2.90475613 14.2612057,2.90475612 14.6422702,3.28582065 L18.8795952,7.52704383 C19.1550984,7.80714948 19.2363368,8.22488202 19.0858901,8.58782413 C18.9354434,8.95076624 18.5824933,9.18851902 18.1896168,9.191568 L18.1896168,9.191568 Z"/></g><g fill-rule="nonzero" transform="translate(72 48)"><rect width="24" height="24" fill="#FFF" opacity="0"/><path fill="#000" d="M16.6537327,21.6657538 L7.34487153,21.6657538 C5.51282576,21.6616123 3.90576891,20.4427949 3.40770664,18.6797456 L1.09608408,10.4584775 C0.879463151,9.69559253 1.03368651,8.87526159 1.51257196,8.24313279 C1.99145741,7.61100399 2.73940748,7.24046602 3.5324485,7.24246026 L20.4661557,7.24246026 C21.2587026,7.24246026 22.0055962,7.61331096 22.4846678,8.24467532 C22.9637394,8.87603969 23.1197963,9.69519484 22.9064183,10.4584775 L20.5947958,18.6797456 C20.0940504,20.4426207 18.4863399,21.6607277 16.6537327,21.6657538 L16.6537327,21.6657538 Z"/><path fill="#000" d="M5.81288559,9.191568 C5.42000915,9.18851902 5.06705905,8.95076624 4.91661232,8.58782413 C4.7661656,8.22488202 4.84740398,7.80714948 5.12290719,7.52704383 L9.36413036,3.28582065 C9.6106359,3.0393151 9.96992556,2.94304372 10.3066584,3.03327101 C10.6433912,3.1234983 10.9064095,3.38651659 10.9966368,3.72324942 C11.0868641,4.05998226 10.9905927,4.41927192 10.7440872,4.66577746 L6.50286399,8.90310245 C6.32038529,9.08718946 6.07208856,9.19099713 5.81288559,9.191568 Z M18.1896168,9.191568 C17.9304139,9.19099713 17.6821171,9.08718946 17.4996384,8.90310245 L13.2623134,4.66577746 C12.8812489,4.28471291 12.8812489,3.66688521 13.2623134,3.28582067 C13.643378,2.90475613 14.2612057,2.90475612 14.6422702,3.28582065 L18.8795952,7.52704383 C19.1550984,7.80714948 19.2363368,8.22488202 19.0858901,8.58782413 C18.9354434,8.95076624 18.5824933,9.18851902 18.1896168,9.191568 L18.1896168,9.191568 Z"/></g><g fill-rule="nonzero" transform="translate(96 24)"><rect width="24" height="24" fill="#FFF" opacity="0"/><path fill="#000" d="M12,23 C5.92486775,23 1,18.0751322 1,12 C1,5.92486775 5.92486775,1 12,1 C18.0751322,1 23,5.92486775 23,12 C22.9938339,18.0725763 18.0725763,22.9938339 12,23 Z M12,2.86440678 C6.95455118,2.86440678 2.86440678,6.95455118 2.86440678,12 C2.86440678,17.0454488 6.95455118,21.1355932 12,21.1355932 C17.0454488,21.1355932 21.1355932,17.0454488 21.1355932,12 C21.1294296,6.95710646 17.0428935,2.87057044 12,2.86440678 Z"/><path fill="#000" d="M17.2538983,20.2816949 C16.4897275,18.0310154 14.3768709,16.5170709 12,16.5170709 C9.62312909,16.5170709 7.51027253,18.0310154 6.74610169,20.2816949 L4.98237288,19.6813559 C6.00483281,16.6769577 8.82638485,14.6567207 12,14.6567207 C15.1736152,14.6567207 17.9951672,16.6769577 19.0176271,19.6813559 L17.2538983,20.2816949 Z M12,13.7040678 C9.77176505,13.7040678 7.96542373,11.8977265 7.96542373,9.66949153 C7.96542373,7.44125658 9.77176505,5.63491525 12,5.63491525 C14.2282349,5.63491525 16.0345763,7.44125658 16.0345763,9.66949153 C16.0325205,11.8968744 14.2273829,13.7020121 12,13.7040678 L12,13.7040678 Z M12,7.49932203 C10.8014485,7.49932203 9.82983051,8.47094001 9.82983051,9.66949153 C9.82983051,10.868043 10.8014485,11.839661 12,11.839661 C13.1985515,11.839661 14.1701695,10.868043 14.1701695,9.66949153 C14.1681169,8.47179126 13.1977003,7.50137465 12,7.49932203 L12,7.49932203 Z"/></g><g fill-rule="nonzero" transform="translate(96 48)"><rect width="24" height="24" fill="#FFF" opacity="0"/><path fill="#000" d="M12,1 C18.0751322,1 23,5.92486775 23,12 C22.9938339,18.0725763 18.0725763,22.9938339 12,23 C5.92486775,23 1,18.0751322 1,12 C1,5.92486775 5.92486775,1 12,1 Z M12,14.66 C9.05413549,14.66 6.53207722,16.2108805 5.49034626,18.4096414 C7.14734594,20.0923334 9.45183977,21.1355932 12,21.1355932 C14.5481602,21.1355932 16.8526541,20.0923334 18.5094703,18.4094754 C17.4679228,16.2108805 14.9458645,14.66 12,14.66 Z M12,5.63491525 C9.77176505,5.63491525 7.96542373,7.44125658 7.96542373,9.66949153 C7.96542373,11.8977265 9.77176505,13.7040678 12,13.7040678 C14.2273829,13.7020121 16.0325205,11.8968744 16.0345763,9.66949153 C16.0345763,7.44125658 14.2282349,5.63491525 12,5.63491525 Z"/></g><g fill-rule="nonzero" transform="translate(120 24)"><rect width="24" height="24" fill="#FFF" opacity="0"/><path fill="#000" d="M12,22.8532247 L11.5972884,22.6630552 C9.69171278,21.6874652 7.92378882,20.4637107 6.33966146,19.0237333 C2.86440731,15.8691571 0.999999998,12.192547 0.999999998,8.39661491 C0.999243845,5.79181725 2.46655195,3.40896234 4.79287381,2.23712699 C7.11919566,1.06529165 9.90733924,1.30455292 12,2.85559811 C14.0926613,1.30455292 16.8808049,1.06529165 19.2071268,2.23712699 C21.5334486,3.40896234 23.0007567,5.79181725 23,8.39661491 C23,12.192547 21.1355933,15.8542418 17.6603391,19.0311909 C16.0757648,20.4685451 14.3078614,21.6897776 12.4027121,22.6630552 L12,22.8532247 Z M7.89830549,3.36271674 C5.11986328,3.36682383 2.86851441,5.61817271 2.86440731,8.39661491 C2.86440731,15.3694961 10.1840681,19.769496 12.0000003,20.768818 C13.8122036,19.769496 21.1355953,15.3694961 21.1355953,8.39661491 C21.1368744,6.38508113 19.9396502,4.56619426 18.0915568,3.77195217 C16.2434634,2.97771009 14.0998912,3.36084648 12.6413562,4.74610653 L12.0000003,5.35763194 L11.3586444,4.74610653 C10.4254828,3.85797611 9.18654698,3.36271674 7.89830549,3.36271674 Z"/></g><g fill-rule="nonzero" transform="translate(120 48)"><rect width="24" height="24" fill="#FFF" opacity="0"/><path fill="#000" d="M12,22.8532247 L11.5972884,22.6630552 C9.69171278,21.6874652 7.92378882,20.4637107 6.33966146,19.0237333 C2.86440731,15.8691571 0.999999998,12.192547 0.999999998,8.39661491 C0.999243845,5.79181725 2.46655195,3.40896234 4.79287381,2.23712699 C7.11919566,1.06529165 9.90733924,1.30455292 12,2.85559811 C14.0926613,1.30455292 16.8808049,1.06529165 19.2071268,2.23712699 C21.5334486,3.40896234 23.0007567,5.79181725 23,8.39661491 C23,12.192547 21.1355933,15.8542418 17.6603391,19.0311909 C16.0757648,20.4685451 14.3078614,21.6897776 12.4027121,22.6630552 L12,22.8532247 Z"/></g><g fill-rule="nonzero" transform="translate(144 24)"><rect width="24" height="24" fill="#FFF" opacity="0"/><path fill="#000" d="M7.13390021,22.7542347 C6.96605041,22.7537935 6.80133294,22.7087535 6.65661213,22.6237263 C6.38136464,22.4508309 6.21605011,22.1470478 6.22018096,21.8220315 L6.22018096,18.0447438 C6.22018096,17.5299021 6.63770263,17.1125405 7.15254428,17.1125405 C7.66738592,17.1125405 8.08474754,17.5299021 8.08474755,18.0447438 L8.08474755,20.25593 L13.5884757,17.2728795 C14.0415364,17.0278148 14.6074787,17.1964289 14.8525434,17.6494896 C15.097608,18.1025502 14.9289939,18.6684926 14.4759332,18.9135572 L7.59627304,22.6423703 C7.45441678,22.7190183 7.29510518,22.7575614 7.13390021,22.7542347 Z"/><path fill="#000" d="M16.1016957,19.0254216 L14.0135604,19.0254216 C13.4987187,19.0254216 13.0813571,18.60806 13.0813571,18.0932183 C13.0813571,17.5783767 13.4987187,17.1610151 14.0135604,17.1610151 L16.1016957,17.1610151 C18.8801377,17.156908 21.1314864,14.9055593 21.1355934,12.1271174 L21.1355934,8.39830426 C21.1314864,5.61986231 18.8801377,3.36851365 16.1016957,3.36440656 L7.8983069,3.36440656 C5.11986496,3.36851365 2.86851629,5.61986231 2.8644092,8.39830426 L2.8644092,12.1271174 C2.86745247,14.6568238 4.74479479,16.7925599 7.25322223,17.1199981 C7.76806388,17.1858979 8.13200322,17.6566818 8.06610349,18.1715234 C8.00020376,18.6863651 7.52941985,19.0503044 7.01457819,18.9844047 C3.5714758,18.5346682 0.996989386,15.5994664 0.999997362,12.1271174 L0.999997362,8.39830426 C1.00411287,4.59017983 4.09018247,1.50411023 7.8983069,1.5 L16.1016957,1.5 C19.9098202,1.50411023 22.9958898,4.59017983 22.9999974,8.39830426 L22.9999974,12.1271174 C22.9958898,15.9352418 19.9098202,19.0213114 16.1016957,19.0254216 Z"/></g><g fill-rule="nonzero" transform="translate(144 48)"><rect width="24" height="24" fill="#FFF" opacity="0"/><path fill="#000" d="M16.1016957,1.5 C19.9098202,1.50411023 22.9958898,4.59017983 22.9999947,8.39830426 L22.9999947,12.1271174 C22.9958898,15.9352418 19.9098202,19.0213114 16.1016957,19.0254216 L14.2679974,19.025 L7.59627304,22.6423703 C7.45441678,22.7190183 7.29510518,22.7575614 7.13390021,22.7546095 C6.96605041,22.7537935 6.80133294,22.7087535 6.65661213,22.6237263 C6.38136464,22.4508309 6.21605011,22.1470478 6.22025946,21.8220315 L6.21997722,18.8333265 C3.18286001,18.0701492 0.997225912,15.3266641 0.999994729,12.1271174 L0.999994729,8.39830426 C1.00411287,4.59017983 4.09018247,1.50411023 7.8983069,1.5 L16.1016957,1.5 Z"/></g><g fill-rule="nonzero" transform="translate(0 72)"><rect width="24" height="24" fill="#FFF" opacity="0"/><path fill="#000" d="M17.8377239,23 L5.91284943,23 C3.75269388,22.9979456 2.00205436,21.2473061 2,19.0871506 L2,12.3794087 C2.00205436,10.2192531 3.75269388,8.4686136 5.91284943,8.46655925 L8.1487634,8.46655925 C8.66328889,8.46655925 9.08039421,8.88366457 9.08039421,9.39819006 C9.08039421,9.91271556 8.66328889,10.3298209 8.1487634,10.3298209 L5.91284943,10.3298209 C4.78174398,10.3318718 3.8653126,11.2483032 3.86326164,12.3794087 L3.86326164,19.0871506 C3.8653126,20.218256 4.78174398,21.1346874 5.91284943,21.1367384 L17.8377239,21.1367384 C18.9688294,21.1346874 19.8852607,20.218256 19.8873117,19.0871506 L19.8873117,12.3794087 C19.8852607,11.2483032 18.9688294,10.3318718 17.8377239,10.3298209 L15.6018099,10.3298209 C15.0872844,10.3298209 14.6701791,9.91271556 14.6701791,9.39819006 C14.6701791,8.88366457 15.0872844,8.46655925 15.6018099,8.46655925 L17.8377239,8.46655925 C19.9978795,8.4686136 21.748519,10.2192531 21.7505733,12.3794087 L21.7505733,19.0871506 C21.748519,21.2473061 19.9978795,22.9979456 17.8377239,23 Z"/><path fill="#000" d="M11.8752867,17.7828674 C11.3607612,17.7828674 10.9436558,17.3657621 10.9436558,16.8512366 L10.9436558,1.94514352 C10.9436558,1.43061803 11.3607612,1.0135127 11.8752867,1.0135127 C12.3898122,1.0135127 12.8069175,1.43061803 12.8069175,1.94514352 L12.8069175,16.8512366 C12.8069175,17.3657621 12.3898122,17.7828674 11.8752867,17.7828674 L11.8752867,17.7828674 Z"/><path fill="#000" d="M15.6018099,6.6033086 C15.3544762,6.60415123 15.1170372,6.50622441 14.9422153,6.33126141 L11.8752867,3.24942667 L8.80835802,6.31635532 C8.44407396,6.68063936 7.85345283,6.68063935 7.48916879,6.31635531 C7.12488474,5.95207126 7.12488474,5.36145013 7.48916878,4.99716608 L11.215692,1.27064281 C11.5813889,0.90978573 12.1691844,0.90978573 12.5348813,1.27064281 L16.2614046,4.99716608 C16.6222616,5.36286295 16.6222616,5.95065845 16.2614046,6.31635532 C16.0890634,6.49679754 15.8513123,6.60022595 15.6018099,6.6033086 Z"/></g><g fill-rule="nonzero" transform="translate(24 72)"><rect width="24" height="24" fill="#FFF" opacity="0"/><path fill="#000" d="M21.1500001,5.89532622 C24.0621549,10.2595873 23.4865218,16.0731077 19.7750408,19.781521 C17.710503,21.8478477 14.9075451,23.006117 11.9865891,23.0000241 C6.73993521,22.9933175 2.22834201,19.2819971 1.21018194,14.1350785 C0.192021864,8.98815989 2.95076667,3.838626 7.79972934,1.834884 C12.648692,-0.168858008 18.2378452,1.5310651 21.1500001,5.89532622 Z M11.9865891,2.83805383 C7.6263173,2.84166283 3.87570561,5.92466585 3.02830455,10.2018021 C2.18090349,14.4789383 4.47270249,18.7590847 8.50223501,20.424873 C12.5317675,22.0906612 17.1768647,20.6781925 19.5969858,17.0512107 C22.017107,13.424229 21.538282,8.59279834 18.4533189,5.51140491 C16.7388627,3.79602509 14.4118461,2.83404826 11.9865891,2.83805383 Z M17.9753835,10.606612 C18.7254031,10.606612 19.3334142,11.2146231 19.3334142,11.9646427 C19.3334142,12.7146623 18.7254031,13.3226734 17.9753835,13.3226734 C17.2253639,13.3226734 16.6173528,12.7146623 16.6173528,11.9646427 C16.6173528,11.2146231 17.2253639,10.606612 17.9753835,10.606612 Z M12.0000485,10.606612 C12.7500681,10.606612 13.3580792,11.2146231 13.3580792,11.9646427 C13.3580792,12.7146623 12.7500681,13.3226734 12.0000485,13.3226734 C11.2500289,13.3226734 10.6420178,12.7146623 10.6420178,11.9646427 C10.6420178,11.2146231 11.2500289,10.606612 12.0000485,10.606612 Z M6.02471351,10.606612 C6.77473315,10.606612 7.38274419,11.2146231 7.38274419,11.9646427 C7.38274419,12.7146623 6.77473315,13.3226734 6.02471351,13.3226734 C5.27469388,13.3226734 4.66668283,12.7146623 4.66668283,11.9646427 C4.66668283,11.2146231 5.27469388,10.606612 6.02471351,10.606612 Z"/></g><g fill-rule="nonzero" transform="translate(48 72)"><rect width="24" height="24" fill="#FFF" opacity="0"/><path fill="#000" d="M12.8128867,8.17732508 L11.949465,8.17732508 C11.7021663,8.17832089 11.4648118,8.08002001 11.2906418,7.90445665 C11.1164718,7.72889328 11.0200653,7.49076308 11.0230469,7.24348026 L11.0230469,6.5356968 C11.0008129,5.42399503 11.1638625,3.42293184 12.5053159,2.08888972 C13.3108358,1.18695088 14.54933,0.804828074 15.7230041,1.09610994 C16.8966781,1.3873918 17.8127932,2.30424452 18.1031304,3.47815263 C18.3934676,4.65206074 18.0103481,5.89024702 17.1077612,6.69504072 C15.8404212,7.96238073 13.9542339,8.17732508 12.8128867,8.17732508 Z M14.8028329,2.98936463 C14.4302636,2.98894695 14.0728766,3.13696919 13.8097127,3.40069781 C13.0204044,4.19000606 12.8758832,5.50181415 12.8758832,6.32447346 C13.6429574,6.32447346 15.0103506,6.1836579 15.7996588,5.39434965 C16.2033269,4.9915821 16.3242384,4.38512356 16.1058968,3.8583441 C15.8875553,3.33156464 15.3730687,2.9884683 14.8028329,2.98936463 L14.8028329,2.98936463 Z"/><path fill="#000" d="M11.0712206,8.17732508 C9.95951887,8.17732508 8.0510975,7.96238073 6.79116883,6.69504072 C5.63941152,5.40542056 5.69443578,3.44102663 6.91657711,2.21790129 C8.13871844,0.994775946 10.1030674,0.938170708 11.3936142,2.08888972 C12.7276563,3.42293184 12.8760145,5.42399503 12.8760145,6.5356968 L12.8760145,7.24348026 C12.8788648,7.49076308 12.7824583,7.72889328 12.6082882,7.90445665 C12.4341182,8.08002001 12.1967638,8.17832089 11.949465,8.17732508 L11.0712206,8.17732508 Z M9.09609716,2.98936466 C8.72240594,2.98877938 8.36380516,3.1367522 8.09927124,3.40069781 C7.55034258,3.9504463 7.55034258,4.84089548 8.09927124,5.39064397 C8.89228517,6.1836579 10.2819124,6.32447346 11.0230469,6.32447346 C11.0230469,5.50181415 10.8785257,4.19000606 10.0892174,3.40069781 C9.82605346,3.13696919 9.46866645,2.98894695 9.09609716,2.98936466 Z M16.0887013,23 L7.81022878,23 C5.66215977,22.9979571 3.92131546,21.2571128 3.91927259,19.1090438 L3.91927259,12.4388332 C3.91927259,11.9271866 4.33404412,11.5124151 4.84569073,11.5124151 L19.0532393,11.5124151 C19.564886,11.5124151 19.9796575,11.9271866 19.9796575,12.4388332 L19.9796575,19.1090438 C19.9776146,21.2571128 18.2367703,22.9979571 16.0887013,23 Z M5.77210887,13.3652513 L5.77210887,19.1090438 C5.77414837,20.2338205 6.68545211,21.1451242 7.81022878,21.1471637 L16.0887013,21.1471637 C17.213478,21.1451242 18.1247817,20.2338205 18.1268212,19.1090438 L18.1268212,13.3652513 L5.77210887,13.3652513 Z"/><path fill="#000" d="M20.4725119,13.3652513 L3.42641814,13.3652513 C2.91477153,13.3652513 2.5,12.9504798 2.5,12.4388332 L2.5,10.9565642 C2.50204286,8.80849515 4.24288718,7.06765084 6.39095619,7.06560797 L17.5079739,7.06560797 C19.6560429,7.06765084 21.3968872,8.80849515 21.3989301,10.9565642 L21.3989301,12.4388332 C21.3989301,12.9504798 20.9841585,13.3652513 20.4725119,13.3652513 L20.4725119,13.3652513 Z M4.35283628,11.5124151 L19.5460938,11.5124151 L19.5460938,10.9565642 C19.5460938,9.83094162 18.6335964,8.91844426 17.5079739,8.91844426 L6.39095619,8.91844426 C5.26533365,8.91844426 4.35283628,9.83094162 4.35283628,10.9565642 L4.35283628,11.5124151 Z"/><path fill="#000" d="M11.949465,23 C11.4378184,23 11.0230469,22.5852285 11.0230469,22.0735819 L11.0230469,12.4388332 C11.0230469,11.9271866 11.4378184,11.5124151 11.949465,11.5124151 C12.4611117,11.5124151 12.8758832,11.9271866 12.8758832,12.4388332 L12.8758832,22.0735819 C12.8758832,22.3192832 12.7782787,22.5549213 12.6045416,22.7286584 C12.4308045,22.9023955 12.1951664,23 11.949465,23 L11.949465,23 Z"/></g><g fill-rule="nonzero" transform="translate(72 72)"><rect width="24" height="24" fill="#FFF" opacity="0"/><path fill="#000" d="M12.3097746,15.5908841 C10.431643,15.5929381 8.90744783,14.0720806 8.90538468,12.193949 C8.90332987,10.3158174 10.4241868,8.7916216 12.3023184,8.78955769 C14.18045,8.78750214 15.7046464,10.3083585 15.7067069,12.1864901 C15.7067069,14.0637741 14.1870542,15.5867676 12.3097746,15.5908841 Z M12.3097746,10.6539463 C11.687738,10.6524473 11.1261818,11.0261921 10.8874415,11.6005918 C10.6487013,12.1749914 10.7799003,12.8366691 11.219748,13.2765167 C11.6595956,13.7163644 12.3212732,13.8475634 12.8956729,13.6088231 C13.4700726,13.3700829 13.8438174,12.8085267 13.8423184,12.1864901 C13.8382286,11.3417906 13.1544741,10.658036 12.3097746,10.6539463 Z M8.10742262,8.18176419 C6.65506762,8.18176419 5.34572084,7.30688664 4.78992864,5.96508558 C4.23413644,4.62328451 4.54135258,3.07880468 5.56832265,2.0518346 C6.59529273,1.02486453 8.13977256,0.71764839 9.48157363,1.27344059 C10.8233747,1.82923279 11.6982522,3.13857957 11.6982522,4.59093458 C11.6941498,6.57239325 10.0888813,8.17766178 8.10742262,8.18176419 L8.10742262,8.18176419 Z M8.10742262,2.86450248 C7.1539405,2.86450248 6.38099052,3.63745246 6.38099052,4.59093458 C6.38099052,5.5444167 7.1539405,6.31736668 8.10742262,6.31736668 C9.06090474,6.31736668 9.83385472,5.5444167 9.83385472,4.59093458 C9.83180384,3.63830325 9.06005395,2.86655336 8.10742262,2.86450248 Z M19.524993,9.70311749 C18.3781166,9.70462062 17.3434001,9.01472023 16.9038126,7.95543245 C16.4642251,6.89614466 16.7064431,5.67633684 17.5174079,4.86537204 C18.3283727,4.05440724 19.5481805,3.81218921 20.6074683,4.25177673 C21.6667561,4.69136425 22.3566565,5.72608071 22.3551534,6.87295714 C22.3510504,8.4343082 21.0863441,9.69901451 19.524993,9.70311749 L19.524993,9.70311749 Z M19.524993,5.90345606 C19.1325364,5.90196097 18.7778836,6.13720938 18.6266499,6.49935963 C18.4754162,6.86150988 18.5574385,7.27911351 18.834414,7.55715845 C19.1113895,7.83520339 19.528674,7.91883429 19.8914043,7.76899727 C20.2541347,7.61916026 20.4907509,7.26541661 20.4907509,6.87295714 C20.4907509,6.33897722 20.058969,5.9055242 19.524993,5.90345606 Z M19.524993,20.3413698 C18.3784557,20.3428734 17.3439749,19.653377 16.9041683,18.5945473 C16.4643618,17.5357177 16.7058956,16.3162024 17.5160867,15.5049439 C18.3262778,14.6936854 19.545474,14.450546 20.6048818,14.8889581 C21.6642896,15.3273701 22.3551484,16.3609423 22.3551484,17.5074806 C22.3531002,19.0702876 21.087796,20.3372589 19.524993,20.3413698 L19.524993,20.3413698 Z M19.524993,16.5417084 C19.1321977,16.5402148 18.7773098,16.7758682 18.6262962,17.1384772 C18.4752826,17.5010863 18.5579905,17.9189826 18.8357407,18.1967328 C19.113491,18.4744831 19.5313873,18.557191 19.8939964,18.4061774 C20.2566054,18.2551638 20.4922588,17.9002759 20.4907652,17.5074806 C20.4887067,16.9749563 20.0575173,16.5437669 19.524993,16.5417084 Z M8.20810009,23 C6.9073915,23.0015037 5.73399024,22.2189371 5.23553373,21.017527 C4.73707721,19.8161169 5.01183529,18.4327193 5.93157576,17.5129788 C6.85131624,16.5932383 8.23471389,16.3184803 9.43612398,16.8169368 C10.6375341,17.3153933 11.4201007,18.4887945 11.418597,19.7895031 C11.4144921,21.5609079 9.97950489,22.9958952 8.20810009,23 L8.20810009,23 Z M8.20810009,18.4396689 C7.66181053,18.4381702 7.16847255,18.7660857 6.9583701,19.270359 C6.74826764,19.7746322 6.86283062,20.355826 7.24858249,20.7426465 C7.63433437,21.1294669 8.21520905,21.2456372 8.72006157,21.0369305 C9.22491409,20.8282238 9.5541951,20.3357948 9.5541951,19.7895031 C9.552159,19.0463143 8.95128042,18.4437713 8.20810009,18.4396689 L8.20810009,18.4396689 Z M4.32642446,15.0203743 C2.76434548,15.0183148 1.49931408,13.7510578 1.5,12.1889776 C1.50068704,10.6268974 2.76683177,9.36075264 4.32891196,9.3600656 C5.89099215,9.35937968 7.15824925,10.6244111 7.16030869,12.1864901 C7.16030869,13.7516011 5.8915355,15.0203743 4.32642446,15.0203743 Z M4.32642446,11.2244466 C3.79305696,11.2265243 3.36234906,11.6605753 3.36439505,12.1939428 C3.36647038,12.7273103 3.80051927,13.1580204 4.33388679,13.155977 C4.86725432,13.1539043 5.29796653,12.7198576 5.29592576,12.1864901 C5.29492414,11.9303545 5.19222711,11.685102 5.01041267,11.5046861 C4.82859823,11.3242702 4.58255996,11.2234701 4.32642446,11.2244466 L4.32642446,11.2244466 Z"/><path fill="#000" d="M11.1128314,10.9597465 C10.7729102,10.9616537 10.4593298,10.7769419 10.2962253,10.4787019 L8.58097959,7.36888688 C8.37016913,6.92375857 8.54200954,6.39144177 8.97329607,6.15359268 C9.40458259,5.91574359 9.94647999,6.05444298 10.210463,6.47024727 L11.9368951,9.57633354 C12.1831323,10.0294864 12.0163806,10.5964422 11.5640156,10.8441238 C11.4256456,10.9197581 11.2705234,10.9595002 11.1128314,10.9597465 L11.1128314,10.9597465 Z M14.2934936,11.6570169 C13.8908623,11.6575536 13.533377,11.3995419 13.4070713,11.0172342 C13.2807657,10.6349266 13.4141869,10.2147307 13.7379031,9.9753146 L17.4443254,7.24583664 C17.8561967,6.93693315 18.4405002,7.02040507 18.7494036,7.43227639 C19.0583071,7.84414772 18.9748352,8.42845116 18.5629639,8.73735465 L14.8453552,11.478019 C14.685242,11.5950959 14.4918432,11.6578198 14.2934936,11.6570169 L14.2934936,11.6570169 Z M17.9961871,17.3135832 C17.7976723,17.3154695 17.6039457,17.2526393 17.4443254,17.1346011 L13.7379031,14.4237671 C13.4714691,14.2239416 13.3318795,13.8971543 13.3717165,13.5665029 C13.4115535,13.2358515 13.6247648,12.9515698 13.9310358,12.8207439 C14.2373068,12.689918 14.5901076,12.7324235 14.8565416,12.9322491 L18.5592351,15.661727 C18.8824014,15.9007343 19.0159802,16.3199693 18.8906533,16.7018777 C18.7653263,17.0837862 18.4093184,17.3423586 18.0073734,17.3434136 L17.9961871,17.3135832 Z M9.27826426,18.7156102 C9.12341623,18.7153042 8.97102423,18.6768861 8.83453766,18.6037463 C8.3826458,18.3575426 8.21574007,17.7917322 8.46165815,17.3396848 L10.3260557,13.916651 C10.6088054,13.564252 11.1035581,13.4653443 11.5000599,13.6819518 C11.8965616,13.8985592 12.0806542,14.3683175 11.9368951,14.7966466 L10.0724976,18.2196804 C9.91600263,18.5156057 9.61285012,18.7048981 9.27826426,18.7156102 L9.27826426,18.7156102 Z M9.83758352,13.1224176 L6.22810993,13.1224176 C5.71327077,13.1224176 5.29591117,12.705058 5.29591117,12.1902189 C5.29591117,11.6753797 5.71327077,11.2580201 6.22810993,11.2580201 L9.83758352,11.2580201 C10.3524227,11.2580201 10.7697823,11.6753797 10.7697823,12.1902189 C10.7697823,12.705058 10.3524227,13.1224176 9.83758352,13.1224176 Z"/></g><g fill-rule="nonzero" transform="translate(96 72)"><rect width="24" height="24" fill="#FFF" opacity="0"/><path fill="#000" d="M15.542143,22.1007296 L8.45785695,22.1007296 C7.05908691,22.0985613 5.76689517,21.3530661 5.06485677,20.1432295 L1.52271373,14.0097292 C0.825762091,12.7964517 0.825762091,11.304278 1.52271373,10.0910004 L5.06485677,3.9575001 C5.76689517,2.74766358 7.05908691,2.00216834 8.45785695,2 L15.542143,2 C16.9409131,2.00216834 18.2331048,2.74766358 18.9351432,3.9575001 L22.4772863,10.0910004 C23.1742379,11.304278 23.1742379,12.7964517 22.4772863,14.0097292 L18.9351432,20.1432295 C18.2331048,21.3530661 16.9409131,22.0985613 15.542143,22.1007296 Z M8.45785695,3.86428581 C7.72470432,3.86490659 7.04723265,4.2554825 6.67932829,4.88964301 L3.13718524,11.0231433 C2.77172561,11.6591996 2.77172561,12.44153 3.13718524,13.0775863 L6.67932829,19.2110866 C7.04834407,19.8441315 7.72511286,20.2343022 8.45785695,20.2364438 L15.542143,20.2364438 C16.2748871,20.2343022 16.9516559,19.8441315 17.3206717,19.2110866 L20.8628148,13.0775863 C21.2282744,12.44153 21.2282744,11.6591996 20.8628148,11.0231433 L17.3169431,4.88964301 C16.9497085,4.25663163 16.2739633,3.86623258 15.542143,3.86428581 L8.45785695,3.86428581 Z"/><path fill="#000" d="M11.9962714,13.7450599 C11.4829198,13.7429472 11.0678571,13.3262134 11.0678571,12.8128577 L11.0678571,7.59285744 C11.0678571,7.07804913 11.4851917,6.66071453 12,6.66071453 C12.5148083,6.66071453 12.932158,7.07804913 12.932158,7.59285744 L12.932158,12.8128577 C12.9331476,13.0610316 12.8347494,13.2992771 12.6589126,13.4744134 C12.4830758,13.6495497 12.2444394,13.746996 11.9962714,13.7450599 L11.9962714,13.7450599 Z M11.9962714,17.4549294 C11.4901073,17.4530059 11.0779768,17.047496 11.0678571,16.5414293 L11.0678571,16.0865436 C11.0678571,15.5717353 11.4851917,15.1544007 12,15.1544007 C12.5148083,15.1544007 12.9321429,15.5717353 12.9321429,16.0865436 L12.9321429,16.5414293 C12.9239688,17.0512615 12.5061521,17.4590905 11.9962714,17.4549294 Z"/></g><g fill-rule="nonzero" transform="translate(120 72)"><rect width="24" height="24" fill="#FFF" opacity="0"/><path fill="#000" d="M15.6271186,23 L8.91525424,23 C6.75377107,22.9979444 5.00205562,21.2462289 5,19.0847458 L5,4.91525424 C5.00205562,2.75377107 6.75377107,1.00205562 8.91525424,1 L15.6271186,1 C17.7886018,1.00205562 19.5403173,2.75377107 19.5423729,4.91525424 L19.5423729,19.0847458 C19.5403173,21.2462289 17.7886018,22.9979444 15.6271186,23 Z M8.91525424,2.86440678 C7.78345361,2.86645901 6.86645901,3.78345361 6.86440678,4.91525424 L6.86440678,19.0847458 C6.86645901,20.2165464 7.78345361,21.133541 8.91525424,21.1355932 L15.6271186,21.1355932 C16.7589193,21.133541 17.6759139,20.2165464 17.6779661,19.0847458 L17.6779661,4.91525424 C17.6759139,3.78345361 16.7589193,2.86645901 15.6271186,2.86440678 L8.91525424,2.86440678 Z"/><path fill="#000" d="M13.7627119,6.59322034 L10.779661,6.59322034 C10.2648193,6.59322034 9.84745763,6.17585867 9.84745763,5.66101695 C9.84745763,5.14617523 10.2648193,4.72881356 10.779661,4.72881356 L13.7627119,4.72881356 C14.2775536,4.72881356 14.6949153,5.14617523 14.6949153,5.66101695 C14.6949153,6.17585867 14.2775536,6.59322034 13.7627119,6.59322034 Z M12.4576271,19.6440678 L12.0847458,19.6440678 C11.569904,19.6440678 11.1525424,19.2267061 11.1525424,18.7118644 C11.1525424,18.1970227 11.569904,17.779661 12.0847458,17.779661 L12.4576271,17.779661 C12.9724688,17.779661 13.3898305,18.1970227 13.3898305,18.7118644 C13.3898305,19.2267061 12.9724688,19.6440678 12.4576271,19.6440678 Z"/></g><g fill-rule="nonzero" transform="translate(0 96)"><rect width="24" height="24" fill="#FFF" opacity="0"/><path fill="#000" d="M18.5291266,23 L5.30303787,23 C4.51795227,23.0022627 3.77543006,22.643377 3.28948053,22.026759 C2.81655184,21.4344473 2.64195583,20.6577013 2.81592167,19.9199814 C3.81481908,15.7019382 7.58137523,12.723184 11.9160822,12.723184 C16.2507892,12.723184 20.0173454,15.7019382 21.0162428,19.9199814 C21.1891755,20.6582733 21.0131904,21.4350823 20.5389551,22.026759 C20.0545321,22.6432383 19.3131593,23.0022333 18.5291266,23 L18.5291266,23 Z M11.9142178,14.5840545 C8.43454433,14.5658947 5.40479716,16.9565788 4.61320804,20.3450658 C4.57271154,20.5299097 4.61793889,20.7231538 4.73625877,20.870828 C4.87352167,21.0426851 5.08314997,21.1406036 5.30303787,21.1355735 L18.5291266,21.1355735 C18.7426198,21.1353958 18.9443962,21.0379392 19.0772617,20.870828 C19.197621,20.7241532 19.24308,20.5299192 19.2003124,20.3450658 C18.4099675,16.9620372 15.3883224,14.5728653 11.9142178,14.5840545 L11.9142178,14.5840545 Z M11.9142178,10.926092 C9.17320322,10.926092 6.95117185,8.70406059 6.95117185,5.96304598 C6.95117185,3.22203137 9.17320322,1 11.9142178,1 C14.6552324,1 16.8772638,3.22203137 16.8772638,5.96304598 C16.8752074,8.70320834 14.6543802,10.9240356 11.9142178,10.926092 Z M11.9142178,2.86440495 C10.2028856,2.86440495 8.8155768,4.25171379 8.8155768,5.96304598 C8.8155768,7.67437817 10.2028856,9.06168701 11.9142178,9.06168701 C13.62555,9.06168701 15.0128589,7.67437817 15.0128589,5.96304598 C15.0108042,4.25256557 13.6246982,2.86645958 11.9142178,2.86440495 L11.9142178,2.86440495 Z"/></g><g fill-rule="nonzero" transform="translate(24 96)"><rect width="24" height="24" fill="#FFF" opacity="0"/><path fill="#000" d="M13.3712958,20.3828347 L3.18349347,20.3828347 C2.51263666,20.3844889 1.87826334,20.0776229 1.46313565,19.5506308 C1.05736386,19.0429831 0.907385523,18.3770242 1.05636991,17.7444417 C1.85195054,14.4001528 4.83977671,12.0397263 8.27739463,12.0397263 C11.7150125,12.0397263 14.7028387,14.4001528 15.4984193,17.7444417 C15.6469024,18.3782074 15.4970297,19.0450724 15.0916536,19.5543626 C14.6750636,20.0790658 14.0412648,20.3842791 13.3712958,20.3828347 Z M8.27739463,13.9006921 C5.6965036,13.8846373 3.44909031,15.6593188 2.86629084,18.1735982 C2.84879582,18.2511201 2.8680771,18.3323769 2.91853598,18.3937742 C2.98145299,18.4714924 3.07603665,18.5167281 3.17602988,18.5169234 L13.3638322,18.5169234 C13.4638254,18.5167281 13.5584091,18.4714924 13.6213261,18.3937742 C13.671785,18.3323769 13.6910662,18.2511201 13.6735712,18.1735982 C13.0920042,15.6647899 10.8527116,13.8916294 8.27739463,13.9006921 L8.27739463,13.9006921 Z M8.27739463,11.0831898 C6.64240765,11.084696 5.1675725,10.1009654 4.54084372,8.59086753 C3.91411494,7.08076961 4.25896975,5.34182172 5.4145465,4.18517698 C6.57012325,3.02853223 8.30875182,2.68207114 9.81942806,3.30740464 C11.3301043,3.93273815 12.3151976,5.40666392 12.3151976,7.04165159 C12.3131444,9.2714222 10.5071624,11.0790733 8.27739463,11.0831898 Z M8.27739463,4.86974006 C7.39675427,4.86823724 6.60205782,5.39776019 6.26435379,6.21107791 C5.92664977,7.02439562 6.11255074,7.96108011 6.73525842,8.58378779 C7.3579661,9.20649548 8.29465059,9.39239644 9.10796831,9.05469242 C9.92128602,8.71698839 10.450809,7.92229194 10.4493062,7.04165159 C10.4472455,5.84299345 9.47605276,4.87180074 8.27739463,4.86974006 Z"/><path fill="#000" d="M21.0550632,20.3828213 L12.2928068,20.3828213 C11.7775534,20.3828213 11.3598579,19.9651258 11.3598579,19.4498723 C11.3598579,18.9346189 11.7775534,18.5169234 12.2928068,18.5169234 L21.0550632,18.5169234 C21.0866654,18.5175419 21.1168491,18.503822 21.1371627,18.4796055 C21.1433936,18.4653285 21.1433936,18.4491009 21.1371627,18.4348239 C20.7802568,16.9337462 19.6649618,15.7282622 18.1961091,15.2559402 C16.7272565,14.7836182 15.1183739,15.11312 13.9534559,16.1248424 C13.7040336,16.3571543 13.3477722,16.4349529 13.0242119,16.3277661 C12.7006515,16.2205793 12.461299,15.9454699 12.3999038,15.6101925 C12.3385085,15.2749151 12.4648439,14.9328417 12.7294269,14.7179554 C14.3862361,13.2743854 16.6779076,12.8036367 18.7696119,13.4771975 C20.8613162,14.1507584 22.4476823,15.8702946 22.9508154,18.0093992 C23.0830225,18.5802834 22.9454147,19.1802536 22.5776358,19.6364621 C22.2089377,20.1025037 21.6492831,20.3768442 21.0550632,20.3828213 L21.0550632,20.3828213 Z M16.8605248,12.7065175 C14.9334768,12.7065175 13.3712958,11.1443365 13.3712958,9.21728849 C13.3712958,7.29024053 14.9334768,5.72805949 16.8605248,5.72805949 C18.7875727,5.72805949 20.3497538,7.29024053 20.3497538,9.21728849 C20.3497538,10.1426896 19.9821396,11.0301886 19.3277823,11.684546 C18.6734249,12.3389033 17.7859258,12.7065175 16.8605248,12.7065175 L16.8605248,12.7065175 Z M16.8605248,7.59395735 C15.9639837,7.59395735 15.2371936,8.32074746 15.2371936,9.21728849 C15.2371936,10.1138295 15.9639837,10.8406196 16.8605248,10.8406196 C17.7570658,10.8406196 18.4838559,10.1138295 18.4838559,9.21728849 C18.4756652,8.32658234 17.7512686,7.60884688 16.8605248,7.60888454 L16.8605248,7.59395735 Z"/></g><g fill-rule="nonzero" transform="translate(0 216)"><rect width="24" height="24" fill="#FFF" opacity="0"/><path fill="#000" d="M20.74775,7.44695893 C20.7615,7.6403756 20.7615,7.83470893 20.7615,8.02995893 C20.7615,13.9947089 16.2203333,20.8724589 7.919,20.8724589 L7.919,20.8697089 C5.46621296,20.8730726 3.0642821,20.170441 1,18.8457089 C3.3866427,19.1332858 5.78970366,18.4602177 7.67975,16.9747923 C5.7486849,16.9382236 4.05430529,15.6784892 3.46308333,13.8397923 C4.13929376,13.9701687 4.83639016,13.9438277 5.50083333,13.7627923 C3.39492681,13.337105 1.88058595,11.4865421 1.88,9.33804227 L1.88,9.28120893 C2.50773969,9.6310352 3.21042736,9.82470661 3.92875,9.8458756 C1.94524293,8.52141983 1.33313889,5.8831511 2.53083333,3.8206256 C4.82330422,6.64059136 8.20529875,8.35457953 11.835,8.53595893 C11.375364,6.54746962 12.3058312,4.49773129 14.1052758,3.53473892 C15.9047203,2.57174654 18.1263232,2.93462021 19.5258333,4.4201256 C20.5370929,4.22071328 21.5068318,3.84993075 22.3931667,3.32379227 C22.0562918,4.36922897 21.350997,5.25662997 20.4085833,5.82079227 C21.3030455,5.71486211 22.1765648,5.4753936 23,5.1103756 C22.3939049,6.01675798 21.6312503,6.80796944 20.74775,7.44695893 L20.74775,7.44695893 Z"/></g><g fill-rule="nonzero" transform="translate(24 216)"><rect width="24" height="24" fill="#FFF" opacity="0"/><path fill="#000" d="M11.9486518,1 C5.89358427,1.02828723 1,5.94488155 1,12.000015 C1,18.075139 5.92486105,23 11.999985,23 C14.9173624,23 17.7152517,21.8410763 19.778149,19.778179 C21.8410464,17.7152816 22.9999701,14.9173924 22.9999701,12.000015 C22.9999701,5.92489099 18.075109,1 11.999985,1 C11.982874,1 11.9657628,1 11.9486518,1 Z M16.4971456,7.62202093 C16.5888121,7.6201876 16.7913952,7.64310424 16.923395,7.75035409 C17.0111094,7.82652558 17.0670467,7.93283918 17.0801448,8.04827035 C17.0948114,8.13352023 17.1131447,8.32876997 17.0984781,8.48093643 C16.9334783,10.2207674 16.216646,14.441095 15.8518131,16.389009 C15.6978133,17.2140079 15.3943971,17.4899242 15.1001475,17.5165075 C14.4621483,17.5760907 13.9772323,17.0948414 13.3584832,16.6896753 C12.3904845,16.0544261 11.8432352,15.6593433 10.9036532,15.0396775 C9.81740467,14.3246785 10.5214037,13.9305123 11.1401529,13.2888466 C11.3024026,13.1201801 14.1165655,10.5599336 14.1715654,10.3280172 C14.1779821,10.298684 14.1843987,10.1905174 14.1202321,10.1336842 C14.0560656,10.0768509 13.9607324,10.0961009 13.8919825,10.1116842 C13.7948159,10.1336842 12.2484014,11.1566828 9.25273877,13.17793 C8.81273937,13.4804296 8.41582324,13.6270961 8.05924039,13.6179294 C7.66690759,13.6105961 6.91157529,13.3970131 6.34965939,13.2145967 C5.66032699,12.9900136 5.11307773,12.8717638 5.16074434,12.4913476 C5.1854943,12.2933479 5.4586606,12.0907648 5.97932656,11.8835985 C9.18582219,10.4866004 11.3234859,9.56535162 12.3941512,9.12076889 C15.4484803,7.85027062 16.0837295,7.62935425 16.4971456,7.62202093 Z"/></g><g fill-rule="nonzero" transform="translate(48 216)"><rect width="24" height="24" fill="#FFF" opacity="0"/><path fill="#000" d="M12,1 C9.01166667,1 8.63858333,1.01375 7.46525,1.066 C6.29375,1.121 5.49625,1.30525 4.795,1.5775 C4.07175,1.858 3.45758333,2.23475 2.84616667,2.84616667 C2.23475,3.45758333 1.85708333,4.07083333 1.5775,4.795 C1.30525,5.49625 1.12008333,6.29375 1.066,7.46525 C1.011,8.63858333 1,9.01166667 1,12 C1,14.9883333 1.01375,15.3614167 1.066,16.53475 C1.121,17.7053333 1.30525,18.50375 1.5775,19.205 C1.858,19.9273333 2.23475,20.5424167 2.84616667,21.1538333 C3.45758333,21.7643333 4.07083333,22.1429167 4.795,22.4225 C5.49716667,22.6938333 6.29466667,22.8799167 7.46525,22.934 C8.63858333,22.989 9.01166667,23 12,23 C14.9883333,23 15.3614167,22.98625 16.53475,22.934 C17.7053333,22.879 18.50375,22.6938333 19.205,22.4225 C19.9273333,22.142 20.5424167,21.7643333 21.1538333,21.1538333 C21.7643333,20.5424167 22.1429167,19.9300833 22.4225,19.205 C22.6938333,18.50375 22.8799167,17.7053333 22.934,16.53475 C22.989,15.3614167 23,14.9883333 23,12 C23,9.01166667 22.98625,8.63858333 22.934,7.46525 C22.879,6.29466667 22.6938333,5.49533333 22.4225,4.795 C22.142,4.07175 21.7643333,3.45758333 21.1538333,2.84616667 C20.5424167,2.23475 19.9300833,1.85708333 19.205,1.5775 C18.50375,1.30525 17.7053333,1.12008333 16.53475,1.066 C15.3614167,1.011 14.9883333,1 12,1 Z M12,2.98 C14.9360833,2.98 15.28625,2.99466667 16.4458333,3.04508333 C17.5183333,3.0955 18.1004167,3.27333333 18.48725,3.4255 C19.0024167,3.62441667 19.36725,3.86275 19.7540833,4.24683333 C20.1381667,4.63183333 20.3765,4.99758333 20.5754167,5.51275 C20.72575,5.89958333 20.9054167,6.48166667 20.954,7.55416667 C21.00625,8.71466667 21.0181667,9.063 21.0181667,12 C21.0181667,14.937 21.0044167,15.28625 20.9503333,16.4458333 C20.8944167,17.5183333 20.7156667,18.1004167 20.5644167,18.48725 C20.3590833,19.0024167 20.1253333,19.36725 19.7403333,19.7540833 C19.35625,20.1381667 18.985,20.3765 18.4753333,20.5754167 C18.0903333,20.72575 17.4990833,20.9054167 16.4265833,20.954 C15.25875,21.00625 14.915,21.0181667 11.9725,21.0181667 C9.02908333,21.0181667 8.68533333,21.0044167 7.51841667,20.9503333 C6.445,20.8944167 5.85375,20.7156667 5.46875,20.5644167 C4.94716667,20.3590833 4.58875,20.1253333 4.20466667,19.7403333 C3.81875,19.35625 3.57216667,18.985 3.37966667,18.4753333 C3.22841667,18.0903333 3.05058333,17.4990833 2.99466667,16.4265833 C2.95341667,15.2715833 2.93875,14.915 2.93875,11.98625 C2.93875,9.05658333 2.95341667,8.69908333 2.99466667,7.53033333 C3.05058333,6.45783333 3.22841667,5.8675 3.37966667,5.4825 C3.57216667,4.96 3.81875,4.6025 4.20466667,4.21658333 C4.58875,3.8325 4.94716667,3.585 5.46875,3.39341667 C5.85375,3.24125 6.43216667,3.0625 7.50466667,3.0075 C8.67341667,2.96625 9.01716667,2.9525 11.95875,2.9525 L12,2.98 L12,2.98 Z M12,6.3515 C8.87875,6.3515 6.3515,8.8815 6.3515,12 C6.3515,15.12125 8.8815,17.6485 12,17.6485 C15.12125,17.6485 17.6485,15.1185 17.6485,12 C17.6485,8.87875 15.1185,6.3515 12,6.3515 Z M12,15.6666667 C9.97416667,15.6666667 8.33333333,14.0258333 8.33333333,12 C8.33333333,9.97416667 9.97416667,8.33333333 12,8.33333333 C14.0258333,8.33333333 15.6666667,9.97416667 15.6666667,12 C15.6666667,14.0258333 14.0258333,15.6666667 12,15.6666667 Z M19.1921667,6.12875 C19.1921667,6.8575 18.6,7.44875 17.8721667,7.44875 C17.1434167,7.44875 16.5521667,6.85658333 16.5521667,6.12875 C16.5521667,5.40091667 17.1443333,4.80966454 17.8721667,4.80966454 C18.5990833,4.80875 19.1921667,5.40091667 19.1921667,6.12875 Z"/></g><g fill-rule="nonzero" transform="translate(72 216)"><rect width="24" height="24" fill="#FFF" opacity="0"/><path fill="#000" d="M17.2280833,11.1960833 C17.1327203,11.1507531 17.0364506,11.1073554 16.9393333,11.0659167 C16.76975,7.93641667 15.0601667,6.14525 12.1891667,6.12691667 L12.1506667,6.12691667 C10.4328333,6.12691667 9.00558333,6.86025 8.1265,8.194 L9.705,9.27658333 C10.3613333,8.28016667 11.3916667,8.0675 12.1515833,8.0675 L12.17725,8.0675 C13.1223333,8.07391667 13.8364167,8.34891667 14.2975,8.88516667 C14.6339167,9.27475 14.8585,9.81466667 14.9694167,10.4948333 C14.0727793,10.3492437 13.1625794,10.3052712 12.2560833,10.36375 C9.52716667,10.5214167 7.77175,12.11275 7.89,14.3246667 C7.94958333,15.4466667 8.50875,16.4119167 9.46391667,17.0425833 C10.2705833,17.5760833 11.311,17.8364167 12.3926667,17.77775 C13.8199167,17.6989167 14.9391667,17.1544167 15.7201667,16.1589167 C16.3141667,15.4026667 16.6890833,14.42275 16.855,13.188 C17.5351667,13.5986667 18.0393333,14.1385833 18.318,14.7875833 C18.7919167,15.8921667 18.8194167,17.70625 17.339,19.1848333 C16.0419167,20.481 14.4826667,21.0410833 12.1268333,21.0585 C9.51341667,21.0401667 7.53616667,20.2014167 6.251,18.5679167 C5.04741667,17.0370833 4.42591667,14.8279167 4.403,12 C4.42591667,9.17208333 5.04741667,6.962 6.251,5.43208333 C7.53616667,3.79858333 9.5125,2.96075 12.1268333,2.9415 C14.7585833,2.95983333 16.76975,3.80316667 18.1044167,5.444 C18.7589167,6.24975 19.2520833,7.26175 19.5775,8.4415 L21.4273333,7.94833333 C21.0331667,6.49541667 20.4125833,5.24416667 19.56925,4.20558333 C17.8578333,2.1 15.3553333,1.022 12.13325,1 L12.1204167,1 C8.902,1.022 6.42975,2.10458333 4.76783333,4.2175 C3.28833333,6.09666667 2.52566667,8.71375 2.5,11.9926667 L2.5,12.0073333 C2.52566667,15.2871667 3.28833333,17.9024167 4.76691667,19.7825 C6.42883333,21.8954167 8.90291667,22.978 12.1204167,23 L12.13325,23 C14.99325,22.9798333 17.009,22.2309167 18.6690833,20.57175 C20.8425,18.4010833 20.7774167,15.6804167 20.0605833,14.01025 C19.54725,12.8121667 18.5673333,11.8395833 17.2280833,11.1960833 Z M12.29,15.839 C11.09375,15.9068333 9.85166667,15.3696667 9.78933333,14.2201667 C9.7435,13.3676667 10.3961667,12.41525 12.3633333,12.3025 C12.5888333,12.28875 12.80975,12.28325 13.027,12.28325 C13.742,12.28325 14.4093333,12.352 15.0170833,12.4849167 C14.7906667,15.3155833 13.4615,15.77575 12.29,15.8399167 L12.29,15.839 Z"/></g><g fill-rule="nonzero" transform="translate(96 216)"><rect width="24" height="24" fill="#FFF" opacity="0"/><path fill="#000" d="M6.73001682,22.9464366 C5.97599905,22.8293998 5.25079757,22.5712878 4.59239103,22.1856179 C3.10741943,21.3340508 1.99919062,19.8087466 1.64353076,18.1285288 C1.50511674,17.4712913 1.4877004,16.6408072 1.50603339,11.5222384 C1.52344972,6.01409377 1.51061663,6.298255 1.77277829,5.39077236 C1.90294246,4.93886433 2.26501887,4.16246251 2.52718053,3.77105333 C3.49424537,2.33191418 4.91688483,1.40793185 6.67960112,1.07335492 C7.03159439,1.00643953 7.54125131,0.999977198 12.2308283,0.999977198 C17.9608021,0.999977198 17.7719723,0.991773145 18.7078711,1.28785082 C20.5495461,1.88369311 22.0103983,3.30052336 22.6622955,5.12311081 C22.9647897,5.98201105 22.9794561,6.11950842 23.000539,8.38179849 L23.018872,10.4259261 L22.6604622,10.671588 C22.148972,11.0208314 21.4779848,11.6432361 20.5375028,12.6423837 C19.4540235,13.793695 18.3595444,14.8606746 17.8040551,15.3070827 C16.6041613,16.270481 15.505099,16.8204705 14.3886204,17.0157167 C13.8074648,17.1165481 12.8468165,17.0771322 12.2784941,16.9286351 C11.7715871,16.7966376 11.8045865,16.774638 11.6130068,17.3539603 C11.45733,17.8123916 11.3594102,18.2884422 11.3215124,18.7710998 L11.2930962,19.144176 L11.1592655,19.1166765 C10.0455368,18.8957641 8.94189119,17.9387824 8.51564934,16.8250537 C8.37153422,16.4693732 8.29087106,16.091187 8.27732057,15.7076584 L8.26265418,15.3959977 L7.9794096,15.1356693 C7.38908755,14.5948464 7.00501156,13.9330257 6.88401388,13.2464555 C6.68968426,12.152893 7.19567459,10.9163334 8.29382025,9.80352131 C9.45246476,8.62746046 11.1601821,7.70439478 12.8339834,7.34690162 C13.4371386,7.21857074 14.5004516,7.18465472 15.0366913,7.27815293 C16.079838,7.45964946 16.9314051,7.98672272 17.4612283,8.78054087 C17.6280584,9.02895279 17.6399749,9.0647021 17.6234752,9.28928114 C17.6192356,9.45435415 17.5602239,9.61333084 17.4557284,9.74118917 C17.0294865,10.3379278 15.7617608,10.9768322 14.3977869,11.2811597 C11.9915829,11.8173995 10.4616955,11.1509955 10.7009409,9.66877388 C10.7247738,9.51936007 10.7376069,9.39011255 10.729357,9.3818627 C10.7000242,9.35252993 10.4607788,9.47719421 10.2022838,9.65685745 C9.76320882,9.96301826 9.37454959,10.5588402 9.23980216,11.1299126 C9.20680279,11.2729099 9.19396971,11.5020722 9.20863609,11.7257345 C9.22696908,12.0291454 9.2572185,12.1418933 9.38463273,12.4003883 C9.46896445,12.5708851 9.63671124,12.8128804 9.75862558,12.9402947 L9.97862137,13.1703736 L9.89062305,13.2822048 C9.63112417,13.6222343 9.42210835,13.9979688 9.27005158,14.3977668 C9.09756403,14.9352345 9.06444549,15.5077122 9.17380343,16.061485 C9.26821829,16.4840602 9.55971271,17.0652158 9.85120714,17.4071259 C10.0730362,17.6683709 10.5817765,18.1074458 10.6633583,18.1074458 C10.6853579,18.1074458 10.7036908,18.0634467 10.7036908,18.010281 C10.7046075,17.7994517 10.8723543,17.1183814 11.0025185,16.7938876 C11.390261,15.8240728 12.2409114,14.9972553 13.587469,14.282269 C13.8120481,14.1631046 14.460119,13.8514439 15.0284415,13.5883656 C16.2750843,13.0108766 16.9561546,12.6579667 17.3301475,12.3921385 C18.4081268,11.6285697 19.0745308,10.499258 19.2917766,9.06928535 C19.3706084,8.54679534 19.3706084,7.57148066 19.2917766,7.0462407 C18.9544497,4.8114501 17.2797318,3.29164583 14.8753611,3.04048397 C12.1941623,2.75907268 8.78147759,4.83069973 6.67868447,8.01513884 C5.65570403,9.56427588 4.96455058,11.282993 4.67397281,13.0044601 C4.56122496,13.6717807 4.5190591,14.9110903 4.58872444,15.5252452 C4.76563772,17.0872154 5.34221003,18.3466913 6.33310775,19.334839 C6.82932203,19.833636 7.40957848,20.2410567 8.04724163,20.5383994 C10.2178668,21.5742129 12.6213208,21.5971291 14.7341971,20.6034815 C15.6471796,20.173573 16.5436625,19.5071691 17.5052274,18.5410209 C18.4402096,17.6014555 19.0726975,16.8177205 20.7978311,14.454599 C21.7511462,13.1502073 22.5064651,12.2839739 22.880458,12.066728 L23.0179554,11.9878962 L23.000539,14.8212587 C22.9840393,17.5647896 22.9803727,17.6692876 22.8877912,18.0854463 C22.3378017,20.5402327 20.5595024,22.3350317 18.1257989,22.890521 L17.6968071,22.9886025 L12.4031583,22.997769 C8.06374132,23.0051022 7.04076088,22.9959357 6.72910017,22.9464366 L6.73001682,22.9464366 Z"/></g></g></svg>